<svg xmlns="http://www.w3.org/2000/svg" xmlns:xlink="http://www.w3.org/1999/xlink" viewBox="0,0,256,256" width="128px" height="128px"><g fill="none" fill-rule="nonzero" stroke="none" stroke-width="1" stroke-linecap="butt" stroke-linejoin="miter" stroke-miterlimit="10" stroke-dasharray="" stroke-dashoffset="0" font-family="none" font-weight="none" font-size="none" text-anchor="none" style="mix-blend-mode: normal"><g transform="scale(2,2)"><path d="M82.9,14.9c-1.2,0.2 -2.3,0.7 -3.3,1.3c1,-0.6 2.2,-1.1 3.3,-1.3z" fill="#e1e0df"></path><path d="M17.1,113.1l36,-8c1.7,-0.4 3.3,-1.3 4.5,-2.5l52.9,-52.9c3.6,-3.6 3.6,-9.4 0,-13l-19.4,-19.3c-3.6,-3.6 -9.4,-3.6 -13,0l-52.9,52.9c-1.2,1.2 -2.1,2.8 -2.5,4.5l-7.8,36.1c-0.5,1.3 0.9,2.7 2.2,2.2" fill="#ffffff"></path><path d="M104.1,56.3l6.5,-6.5c3.6,-3.6 3.6,-9.4 0,-13l-19.4,-19.5c-3.6,-3.6 -9.4,-3.6 -13,0l-6.5,6.5l32.4,32.5" fill="#ffffff"></path><path d="M41.6,86.4l-16.2,-16.2l46.3,-46.3l32.4,32.4l-46.3,46.3l-16.2,-16.2" fill="#c4b5fd"></path><path d="M41.6,86.4l46.3,-46.3l16.2,16.2l-46.3,46.3l-16.2,-16.2" fill="#a78bfa"></path><path d="M51.3,96.2v0c-1.3,1.3 -2.8,2.3 -4.7,2.6l-26.2,8.8l-5.5,3.2v0.2c-0.4,1.1 0.5,2.3 1.6,2.3c0,0 0,0 0.1,0c0.2,0 0.3,0 0.5,-0.1v0l36,-8c1.7,-0.4 3.3,-1.3 4.5,-2.5l0.1,-0.1l-6.4,-6.4M97.7,49.8v0l6.3,6.4v0l-6.3,-6.4M104.1,30.4c3.6,3.6 3.6,9.4 0,13l-6.4,6.4l6.3,6.4l0.1,0.1l6.5,-6.5c1.8,-1.8 2.7,-4.1 2.7,-6.4c0,-2.3 -0.9,-4.7 -2.7,-6.5l-6.5,-6.5" fill="#e7e7e7"></path><path d="M97.6,49.8l-46.3,46.4l6.5,6.4l46.3,-46.3l-0.1,-0.1l-6.4,-6.4" fill="#8b5cf6"></path><path d="M14.9,110.9l2.8,-15.4l15,15l-15.6,2.7c-1.3,0.4 -2.7,-1 -2.2,-2.3z" fill="#a8b2c6"></path><path d="M111.8,48.4c0.7,-1 1.1,-2.1 1.4,-3.3c-0.3,1.1 -0.7,2.3 -1.4,3.3z" fill="#e1e0df"></path><path d="M71.7,23.9l32.4,32.4" fill="none"></path><path d="M13.2,114.8c-1.3,-1.3 -1.7,-3.1 -1.2,-4.7l7.9,-35.9c0.6,-2.3 1.6,-4.3 3.3,-5.9l52.8,-53c4.7,-4.7 12.4,-4.8 17.2,-0.1l19.4,19.4c4.7,4.7 4.7,12.5 0,17.3l-52.9,52.9c-1.6,1.6 -3.7,2.8 -5.9,3.3l-35.9,7.9c-1.6,0.5 -3.4,0.1 -4.7,-1.2zM89,19.5c-2.4,-2.4 -6.4,-2.4 -8.8,0l-52.9,52.9c-0.8,0.8 -1.4,1.8 -1.6,3l-7.6,34.4l34.4,-7.6c1.1,-0.3 2.2,-0.8 3,-1.6l52.9,-52.9c2.4,-2.4 2.4,-6.4 0,-8.8z" fill="#464c55"></path></g></g></svg>